<svg id="Layer_1" data-name="Layer 1" xmlns="http://www.w3.org/2000/svg" viewBox="0 0 628.34277 275.98047">
  <defs>
    <style>
      .cls-1 {
        fill: #424242;
      }
      .cls-2 {
        fill: #757575;
      }
      .cls-3 {
        fill: #bdbdbd;
      }

    </style>
  </defs>
  <title>ZachLogo_BW</title><path
    class="cls-1"
    d="M225.80859,162.502H202.51611L197.58838,175h-8.46582l21.45605-52.18506h7.436L239.15723,175h-8.42139Zm-20.605-6.76367H223.166L214.252,132.938Z"
    transform="translate(-5 -10)"/><path
    class="cls-1"
    d="M287.48926,158.1123q-0.89648,8.37744-6.53906,12.98926-5.644,4.61426-15.00684,4.61523-10.03418,0-16.10352-6.60742-6.06958-6.60645-6.06885-18.209v-4.21045a28.82621,28.82621,0,0,1,2.75488-12.92334,20.07437,20.07437,0,0,1,7.92822-8.62256,23.17945,23.17945,0,0,1,11.98242-3.0459q9.1377,0,14.66992,4.72559,5.53125,4.72632,6.38281,13.10205h-8.28613q-0.80713-5.822-3.96484-8.4209-3.1582-2.5979-8.80176-2.59814-6.854,0-10.59375,4.54639-3.74121,4.54688-3.78516,13.0127v4.748q0,8.46606,3.56152,13.10254,3.561,4.63477,10.32422,4.63574,6.04834,0,9.20605-2.48535,3.15674-2.4873,4.05371-8.35449h8.28613Z"
    transform="translate(-5 -10)"/><path
    class="cls-1"
    d="M340.70508,175H332.418V152.69238H305.36328V175h-8.28711V122.81494h8.28711v23.06885H332.418V122.81494h8.28711V175Z"
    transform="translate(-5 -10)"/><path
    class="cls-1"
    d="M289.416,276.5293a19.87126,19.87126,0,0,1-9.25,7.09961,37.3546,37.3546,0,0,1-13.81934,2.35156,26.79177,26.79177,0,0,1-14.1543-3.74023,24.91636,24.91636,0,0,1-9.56348-10.63867,36.72936,36.72936,0,0,1-3.47168-15.99219v-5.6875q0-14.73633,6.876-22.8457,6.876-8.10645,19.32812-8.10742,10.21289,0,16.43945,5.21875,6.22559,5.21777,7.61523,14.80469h-8.60059Q278.397,226.002,265.40625,226.002q-8.64551,0-13.10156,6.07422-4.45825,6.07617-4.50244,17.59766v5.334q0,10.9834,5.01709,17.46094a16.25637,16.25637,0,0,0,13.57227,6.47852,29.97881,29.97881,0,0,0,8.46582-1.07227,13.09848,13.09848,0,0,0,6.00293-3.61914V259.64063h-15.0957v-7.03125H289.416V276.5293Z"
    transform="translate(-5 -10)"/><path
    class="cls-1"
    d="M310.64844,278.32031h26.15918V285.084H302.36133V232.90039h8.28711v45.41992Z"
    transform="translate(-5 -10)"/><path
    class="cls-1"
    d="M376.18164,272.58789h-23.293L347.96191,285.084h-8.46582l21.45605-52.18359h7.43555L389.53027,285.084h-8.4209Zm-20.60547-6.76562h17.96289L364.625,243.02344Z"
    transform="translate(-5 -10)"/><path
    class="cls-1"
    d="M426.44043,271.73633a6.47129,6.47129,0,0,0-2.71-5.55469q-2.71143-1.97168-9.29492-3.62891a52.65233,52.65233,0,0,1-10.4375-3.584q-8.73486-4.38867-8.73437-12.40625a12.318,12.318,0,0,1,5.44238-10.39258q5.44189-3.9873,13.998-3.98633,8.77881,0,14.35645,4.47852a14.06479,14.06479,0,0,1,5.57715,11.4668h-8.28711a8.01758,8.01758,0,0,0-3.1582-6.78516q-3.1582-2.39648-8.57812-2.39648a14.38815,14.38815,0,0,0-8.0625,1.99219,6.33239,6.33239,0,0,0-3.001,5.57813,5.83813,5.83813,0,0,0,2.75488,4.88281q2.75391,1.97168,9.74219,3.76172a44.92589,44.92589,0,0,1,10.92969,4.05469,16.38115,16.38115,0,0,1,5.86816,5.30664,13.05429,13.05429,0,0,1,1.92578,7.123,11.969,11.969,0,0,1-5.44238,10.36914q-5.44189,3.78516-14.35645,3.78516-9.27246,0-15.38672-4.54687a14.06326,14.06326,0,0,1-6.11426-11.80273h8.332a8.35742,8.35742,0,0,0,3.44922,7.123q3.44824,2.55176,9.71973,2.55273,5.644,0,8.55566-2.03906A6.25122,6.25122,0,0,0,426.44043,271.73633Z"
    transform="translate(-5 -10)"/><path
    class="cls-1"
    d="M473.74219,271.73633a6.47129,6.47129,0,0,0-2.71-5.55469q-2.71143-1.97168-9.29492-3.62891a52.65233,52.65233,0,0,1-10.4375-3.584q-8.73486-4.38867-8.73437-12.40625a12.318,12.318,0,0,1,5.44238-10.39258q5.44189-3.9873,13.998-3.98633,8.77881,0,14.35645,4.47852a14.06479,14.06479,0,0,1,5.57715,11.4668h-8.28711a8.01758,8.01758,0,0,0-3.1582-6.78516q-3.1582-2.39648-8.57812-2.39648a14.38815,14.38815,0,0,0-8.0625,1.99219,6.33239,6.33239,0,0,0-3.001,5.57813,5.83813,5.83813,0,0,0,2.75488,4.88281q2.75391,1.97168,9.74219,3.76172a44.92589,44.92589,0,0,1,10.92969,4.05469,16.38115,16.38115,0,0,1,5.86816,5.30664,13.05429,13.05429,0,0,1,1.92578,7.123,11.969,11.969,0,0,1-5.44238,10.36914q-5.44189,3.78516-14.35645,3.78516-9.27246,0-15.38672-4.54687a14.06326,14.06326,0,0,1-6.11426-11.80273h8.332a8.35742,8.35742,0,0,0,3.44922,7.123q3.44824,2.55176,9.71973,2.55273,5.644,0,8.55566-2.03906A6.25122,6.25122,0,0,0,473.74219,271.73633Z"
    transform="translate(-5 -10)"/><path
    class="cls-1"
    d="M534.88574,285.084h-8.24219L499.54395,245.8457V285.084h-8.28711V232.90039h8.28711l27.09961,39.2832v-39.2832h8.24219V285.084Z"
    transform="translate(-5 -10)"/><path
    class="cls-1"
    d="M579.41113,261.52344H555.58105v16.79688h27.72656V285.084H547.29395V232.90039h35.74512v6.85352h-27.458v14.96094h23.83008v6.80859Z"
    transform="translate(-5 -10)"/><path
    class="cls-1"
    d="M612.78223,264.97266H600.28516V285.084H591.998V232.90039h19.082q9.54053,0,14.71484,4.166,5.17383,4.16309,5.17383,11.7793,0,10.21289-10.52637,14.20117l12.90039,21.58984V285.084h-8.86914ZM600.28516,258.209h11.01855q5.24121,0,8.30957-2.44141a7.999,7.999,0,0,0,3.06836-6.60742,8.4812,8.4812,0,0,0-3.001-6.94336q-3.00146-2.46387-8.64551-2.46289h-10.75V258.209Z"
    transform="translate(-5 -10)"/><polygon class="cls-2" points="137.453 183 183.271 274.636 229.089 183 137.453 183"/><polygon class="cls-2" points="0 92 45.818 0.364 91.636 92 0 92"/><polygon class="cls-3" points="45.818 0 229.089 0 137.453 183.271 45.818 0"/><polygon class="cls-1" points="0 275 183.271 275 91.636 91.729 0 275"/></svg>
