<svg xmlns="http://www.w3.org/2000/svg" viewBox="0 0 109.974 40.37758">
  <defs>
    <style>
      .a {
        fill: #03A9F4;
      }
      .b {
        fill: #fff;
      }
    </style>
  </defs>
  <title>heyBubble</title><rect class="a" width="109.974" height="33.91659" rx="0.96001" ry="0.96001"/><polygon class="a" points="14.056 40.378 8.556 31.294 27.626 31.628 14.056 40.378"/><path
    class="b"
    d="M285.73,248.61914h-2.57373v-4.4834h-3.8125v4.4834h-2.58838V237.88232h2.58838v4.26221h3.8125v-4.26221H285.73v10.73682Z"
    transform="translate(-272.69399 -227.24742)"/><path
    class="b"
    d="M296.04346,245.13867H292.666v1.5625h4.00391v1.918h-6.49658v-8.59082H296.707v1.917h-4.041v1.27539h3.37744v1.918Z"
    transform="translate(-272.69399 -227.24742)"/><path
    class="b"
    d="M303.9458,243.43457l1.53369-3.40625h2.67725l-2.97949,5.57422v3.0166h-2.49219v-3.10449l-2.92041-5.48633h2.66943Z"
    transform="translate(-272.69399 -227.24742)"/><path
    class="b"
    d="M326.68262,239.88086H323.459v8.73828h-2.58789v-8.73828h-3.16357v-1.99854h8.9751v1.99854Z"
    transform="translate(-272.69399 -227.24742)"/><path
    class="b"
    d="M338.46289,248.61914h-2.47754V245.374h-2.91309v3.24512h-2.49219v-8.59082h2.49219V243.457h2.91309v-3.42871h2.47754v8.59082Z"
    transform="translate(-272.69399 -227.24742)"/><path
    class="b"
    d="M348.54785,245.13867h-3.377v1.5625h4.00391v1.918h-6.49609v-8.59082h6.5332v1.917h-4.041v1.27539h3.377v1.918Z"
    transform="translate(-272.69399 -227.24742)"/><path
    class="b"
    d="M356.40527,245.77246H355.4248v2.84668h-2.49219v-8.59082h3.79785a4.43213,4.43213,0,0,1,2.61719.6748,2.18177,2.18177,0,0,1,.94434,1.88379,2.93638,2.93638,0,0,1-.36133,1.53418,2.69964,2.69964,0,0,1-1.21.99512l1.86621,3.40723v0.0957h-2.68457Zm-0.98047-1.917h1.30566a0.90919,0.90919,0,0,0,1.07617-.97363,0.93453,0.93453,0,0,0-1.15039-.93652H355.4248v1.91016Z"
    transform="translate(-272.69399 -227.24742)"/><path
    class="b"
    d="M370.44238,245.13867h-3.377v1.5625h4.00391v1.918h-6.49609v-8.59082h6.5332v1.917h-4.041v1.27539h3.377v1.918Z"
    transform="translate(-272.69399 -227.24742)"/><path
    class="b"
    d="M374.99023,247.50586a1.14254,1.14254,0,0,1,.39453-0.89648,1.55726,1.55726,0,0,1,1.96875,0,1.21469,1.21469,0,0,1,0,1.792,1.55726,1.55726,0,0,1-1.96875,0A1.14054,1.14054,0,0,1,374.99023,247.50586Zm2.40332-2.28613h-2.0127l-0.31738-7.3374h2.64746Z"
    transform="translate(-272.69399 -227.24742)"/></svg>
