<svg id="Layer_1" data-name="Layer 1" xmlns="http://www.w3.org/2000/svg" viewBox="0 0 120.7754 117.79343">
  <defs>
    <style>
      .cls-1,
      .cls-2 {
        fill: #ffffff;
      }
      .cls-1 {
        fill-rule: evenodd;
      }
    </style>
  </defs>
  <title>social-github</title><path
    class="cls-1"
    d="M350.60879,58.4311A60.39419,60.39419,0,0,0,331.518,176.1206c3.0176,0.5586,4.126-1.3105,4.126-2.9053,0-1.4394-.0557-6.1972-0.082-11.2431-16.7998,3.6533-20.3448-7.125-20.3448-7.125-2.747-6.9795-6.705-8.836-6.705-8.836-5.4795-3.748.413-3.6709,0.413-3.6709,6.0635,0.4258,9.2569,6.2237,9.2569,6.2237,5.3857,9.2314,14.1269,6.5625,17.5732,5.0195,0.542-3.9024,2.1065-6.5674,3.834-8.0752-13.4131-1.5264-27.5137-6.7051-27.5137-29.8438a23.36993,23.36993,0,0,1,6.2227-16.2089c-0.627-1.5215-2.6943-7.6631.585-15.9815,0,0,5.0712-1.6221,16.6103,6.1909a57.26241,57.26241,0,0,1,30.2432,0c11.5263-7.813,16.5898-6.1909,16.5898-6.1909,3.2871,8.3184,1.2197,14.46.5928,15.9815a23.32442,23.32442,0,0,1,6.2148,16.2089c0,23.1944-14.1269,28.3008-27.5742,29.7959,2.166,1.8741,4.0957,5.5489,4.0957,11.1827,0,8.08-.0693,14.583-0.0693,16.5722,0,1.6074,1.0869,3.4903,4.1474,2.8975A60.39629,60.39629,0,0,0,350.60879,58.4311Z"
    transform="translate(-290.22109 -58.4311)"/><path
    class="cls-2"
    d="M313.09319,145.1343a0.92451,0.92451,0,1,1-.5371-0.9112,0.76173,0.76173,0,0,1,.5371.9112h0Zm-0.7432-.5508"
    transform="translate(-290.22109 -58.4311)"/><path
    class="cls-2"
    d="M315.53949,147.8628a1.11245,1.11245,0,1,1-.1719-1.2549,0.91249,0.91249,0,0,1,.1719,1.2549h0Zm-0.5762-.6182"
    transform="translate(-290.22109 -58.4311)"/><path
    class="cls-2"
    d="M317.92039,151.3403a1.06524,1.06524,0,0,1-1.3496-.5205,1.04691,1.04691,0,0,1,.0087-1.4394,1.26544,1.26544,0,0,1,1.3409,1.9599h0Zm0,0"
    transform="translate(-290.22109 -58.4311)"/><path
    class="cls-2"
    d="M321.18209,154.7007a1.13185,1.13185,0,0,1-1.5518-.2315,0.9594,0.9594,0,1,1,1.2207-1.3115,1.13928,1.13928,0,0,1,.3311,1.543h0Zm0,0"
    transform="translate(-290.22109 -58.4311)"/><path
    class="cls-2"
    d="M325.68209,156.6518a1.39716,1.39716,0,0,1-2.501-.7519,1.39707,1.39707,0,0,1,2.501.7519h0Zm0,0"
    transform="translate(-290.22109 -58.4311)"/><path
    class="cls-2"
    d="M330.62449,157.0132a1.3868,1.3868,0,0,1-2.5957.0429,1.162,1.162,0,0,1,1.289-.9238,1.14468,1.14468,0,0,1,1.3067.8809h0Zm0,0"
    transform="translate(-290.22109 -58.4311)"/><path
    class="cls-2"
    d="M335.22309,156.2309a1.38935,1.38935,0,1,1-1.4443-.6621,1.16681,1.16681,0,0,1,1.4443.6621h0Zm0,0"
    transform="translate(-290.22109 -58.4311)"/></svg>
