<svg id="Layer_1" data-name="Layer 1" xmlns="http://www.w3.org/2000/svg" viewBox="0 0 628.34277 275.98047">
  <defs>

    <filter id="dropshadow" height="130%">
      <feGaussianBlur in="SourceAlpha" stdDeviation="3"/>
      <feOffset dx="0" dy="3" result="offsetblur"/>
      <feComponentTransfer>
        <feFuncA type="linear" slope="0.73"/>
      </feComponentTransfer>
      <feMerge>
        <feMergeNode/>
        <feMergeNode in="SourceGraphic"/>
      </feMerge>
    </filter>

    <style>
      .cls-1 {
        fill: #47799c;
      }
      .cls-2 {
        fill: #4889b6;
      }
      .cls-3 {
        fill: #e87473;
      }
      .cls-4 {
        fill: #ecec8d;
      }
      .cls-5 {
        fill: #9c3f3e;
      }
    </style>
  </defs>
  <title>ZachLogo_Color</title>
  <path
    class="cls-1"
    d="M225.80859,162.502H202.51611L197.58838,175h-8.46582l21.45605-52.18506h7.436L239.15723,175h-8.42139Zm-20.605-6.76367H223.166L214.252,132.938Z"
    transform="translate(-5 -10)"/>
  <path
    class="cls-1"
    d="M287.48926,158.1123q-0.89648,8.37744-6.53906,12.99023-5.644,4.61426-15.00684,4.61426-10.03418,0-16.10352-6.60742-6.06958-6.60645-6.06885-18.209v-4.21045a28.82621,28.82621,0,0,1,2.75488-12.92334,20.07437,20.07437,0,0,1,7.92822-8.62256,23.17945,23.17945,0,0,1,11.98242-3.0459q9.1377,0,14.66992,4.72559,5.53125,4.72632,6.38281,13.10205h-8.28613q-0.80713-5.822-3.96484-8.4209-3.1582-2.5979-8.80176-2.59814-6.854,0-10.59375,4.54639-3.74121,4.54688-3.78516,13.0127v4.748q0,8.46606,3.56152,13.10254,3.561,4.63623,10.32422,4.63574,6.04834,0,9.20605-2.48535,3.15674-2.48584,4.05371-8.35449h8.28613Z"
    transform="translate(-5 -10)"/>
  <path
    class="cls-1"
    d="M340.70508,175H332.418V152.69238H305.36328V175h-8.28711V122.81494h8.28711v23.06885H332.418V122.81494h8.28711V175Z"
    transform="translate(-5 -10)"/>
  <path
    class="cls-1"
    d="M289.416,276.5293a19.865,19.865,0,0,1-9.25,7.09961,37.3546,37.3546,0,0,1-13.81934,2.35156,26.79177,26.79177,0,0,1-14.1543-3.74023,24.91075,24.91075,0,0,1-9.56348-10.63867,36.725,36.725,0,0,1-3.47168-15.99121v-5.68848q0-14.73633,6.876-22.84473,6.876-8.10791,19.32812-8.10742,10.21289,0,16.43945,5.21777,6.22559,5.21924,7.61523,14.80469h-8.60059Q278.397,226.002,265.40625,226.002q-8.64551,0-13.10156,6.0752-4.45825,6.07471-4.50244,17.59668v5.334q0,10.9834,5.01709,17.46191a16.259,16.259,0,0,0,13.57227,6.47852,29.97881,29.97881,0,0,0,8.46582-1.07227,13.09183,13.09183,0,0,0,6.00293-3.62012V259.6416h-15.0957v-7.03223H289.416V276.5293Z"
    transform="translate(-5 -10)"/>
  <path
    class="cls-1"
    d="M310.64844,278.32129h26.15918V285.085H302.36133V232.90039h8.28711v45.4209Z"
    transform="translate(-5 -10)"/>
  <path
    class="cls-1"
    d="M376.18164,272.58789h-23.293L347.96191,285.085h-8.46582l21.45605-52.18457h7.43555L389.53027,285.085h-8.4209Zm-20.60547-6.76465h17.96289l-8.91406-22.7998Z"
    transform="translate(-5 -10)"/>
  <path
    class="cls-1"
    d="M426.44043,271.73633a6.47129,6.47129,0,0,0-2.71-5.55469q-2.71143-1.97021-9.29492-3.62793a52.71551,52.71551,0,0,1-10.4375-3.584q-8.73486-4.38867-8.73437-12.40723a12.31926,12.31926,0,0,1,5.44238-10.39258q5.44189-3.98584,13.998-3.98633,8.77881,0,14.35645,4.47949a14.06479,14.06479,0,0,1,5.57715,11.4668h-8.28711a8.01941,8.01941,0,0,0-3.1582-6.78613q-3.1582-2.395-8.57812-2.39648a14.388,14.388,0,0,0-8.0625,1.99316,6.32967,6.32967,0,0,0-3.001,5.57715,5.83813,5.83813,0,0,0,2.75488,4.88281q2.75391,1.97168,9.74219,3.7627a44.88893,44.88893,0,0,1,10.92969,4.05371,16.37431,16.37431,0,0,1,5.86816,5.30762,13.05093,13.05093,0,0,1,1.92578,7.12207,11.96944,11.96944,0,0,1-5.44238,10.37012q-5.44189,3.78516-14.35645,3.78516-9.27246,0-15.38672-4.54687a14.06449,14.06449,0,0,1-6.11426-11.80273h8.332a8.35565,8.35565,0,0,0,3.44922,7.12207q3.44824,2.55322,9.71973,2.55273,5.644,0,8.55566-2.03809A6.25284,6.25284,0,0,0,426.44043,271.73633Z"
    transform="translate(-5 -10)"/>
  <path
    class="cls-1"
    d="M473.74219,271.73633a6.47129,6.47129,0,0,0-2.71-5.55469q-2.71143-1.97021-9.29492-3.62793a52.71551,52.71551,0,0,1-10.4375-3.584q-8.73486-4.38867-8.73437-12.40723a12.31926,12.31926,0,0,1,5.44238-10.39258q5.44189-3.98584,13.998-3.98633,8.77881,0,14.35645,4.47949a14.06479,14.06479,0,0,1,5.57715,11.4668h-8.28711a8.01941,8.01941,0,0,0-3.1582-6.78613q-3.1582-2.395-8.57812-2.39648a14.388,14.388,0,0,0-8.0625,1.99316,6.32967,6.32967,0,0,0-3.001,5.57715,5.83813,5.83813,0,0,0,2.75488,4.88281q2.75391,1.97168,9.74219,3.7627a44.88893,44.88893,0,0,1,10.92969,4.05371,16.37431,16.37431,0,0,1,5.86816,5.30762,13.05093,13.05093,0,0,1,1.92578,7.12207,11.96944,11.96944,0,0,1-5.44238,10.37012q-5.44189,3.78516-14.35645,3.78516-9.27246,0-15.38672-4.54687a14.06449,14.06449,0,0,1-6.11426-11.80273h8.332a8.35565,8.35565,0,0,0,3.44922,7.12207q3.44824,2.55322,9.71973,2.55273,5.644,0,8.55566-2.03809A6.25284,6.25284,0,0,0,473.74219,271.73633Z"
    transform="translate(-5 -10)"/>
  <path
    class="cls-1"
    d="M534.88574,285.085h-8.24219L499.54395,245.8457V285.085h-8.28711V232.90039h8.28711l27.09961,39.28418V232.90039h8.24219V285.085Z"
    transform="translate(-5 -10)"/>
  <path
    class="cls-1"
    d="M579.41113,261.52344H555.58105v16.79785h27.72656V285.085H547.29395V232.90039h35.74512v6.85352h-27.458v14.96094h23.83008v6.80859Z"
    transform="translate(-5 -10)"/>

  <path
    class="cls-1"
    d="M612.78223,264.97266H600.28516V285.085H591.998V232.90039h19.082q9.54053,0,14.71484,4.166,5.17383,4.16455,5.17383,11.78027,0,10.21289-10.52637,14.2002l12.90039,21.58984V285.085h-8.86914ZM600.28516,258.209h11.01855q5.24121,0,8.30957-2.44141a7.999,7.999,0,0,0,3.06836-6.60742,8.48053,8.48053,0,0,0-3.001-6.94238q-3.00146-2.46387-8.64551-2.46387h-10.75V258.209Z"
    transform="translate(-5 -10)"/>

  <g id="zed" filter="url(#dropshadow)">
    <polygon class="cls-2" points="137.453 183 183.271 274.636 229.089 183 137.453 183"/>
    <polygon class="cls-3" points="0 92 45.818 0.364 91.636 92 0 92"/>
    <polygon class="cls-4" points="45.818 0 229.089 0 137.453 183.271 45.818 0"/>
    <polygon class="cls-5" points="0 275 183.271 275 91.636 91.729 0 275"/>
  </g>
</svg>
